<svg width="24" height="24" viewBox="0 0 24 24" fill="none" xmlns="http://www.w3.org/2000/svg">
<path d="M1.84615 7.5V22.5C1.84615 23.325 2.67692 24 3.69231 24H20.3077C21.3231 24 22.1538 23.325 22.1538 22.5V7.5H1.84615ZM7.38462 21H5.53846V10.5H7.38462V21ZM11.0769 21H9.23077V10.5H11.0769V21ZM14.7692 21H12.9231V10.5H14.7692V21ZM18.4615 21H16.6154V10.5H18.4615V21ZM22.6154 3H16.6154V1.125C16.6139 0.826996 16.4676 0.541536 16.2082 0.330814C15.9489 0.120092 15.5975 0.00118492 15.2308 0L8.76923 0C8.40246 0.00118492 8.05112 0.120092 7.79177 0.330814C7.53242 0.541536 7.38607 0.826996 7.38462 1.125V3H1.38462C1.01769 3.00079 0.666076 3.11957 0.406621 3.33038C0.147166 3.54119 0.000974569 3.82687 0 4.125V6H24V4.125C23.999 3.82687 23.8528 3.54119 23.5934 3.33038C23.3339 3.11957 22.9823 3.00079 22.6154 3ZM14.7692 3H9.23077V1.5195H14.7692V3Z" fill="white"/>
</svg>
