<svg width="24" height="23" viewBox="0 0 24 23" fill="none" xmlns="http://www.w3.org/2000/svg">
<path fill-rule="evenodd" clip-rule="evenodd" d="M16.2526 0.724658C16.7369 0.26066 17.3937 0 18.0785 0C18.7634 0 19.4202 0.26066 19.9045 0.724658L23.2438 3.92488C23.728 4.38902 24 5.01844 24 5.67473C24 6.33102 23.728 6.96045 23.2438 7.42458L21.1958 9.38729L14.2046 2.68736L16.2526 0.724658ZM12.3786 4.43721L0.756716 15.5749C0.272342 16.0389 0.000146274 16.6684 0 17.3247V20.525C0 21.1814 0.2721 21.8109 0.75644 22.2751C1.24078 22.7392 1.89769 23 2.58265 23H5.92201C6.60692 22.9999 7.26372 22.739 7.74794 22.2748L19.3699 11.1371L12.3786 4.43721Z" fill="#D0A2B6"/>
</svg>
